<?xml version="1.0" standalone="no"?>
<!DOCTYPE svg PUBLIC "-//W3C//DTD SVG 1.1//EN" "http://www.w3.org/Graphics/SVG/1.1/DTD/svg11.dtd">
<svg width="1389mm" height="177mm" viewBox="0 -76 1389 177" xmlns="http://www.w3.org/2000/svg" version="1.1">
<title>OpenSCAD Model</title>
<path d="
M 195.607,3.86778 L 195.415,3.67517 L 195.101,3.19302 L 194.895,2.6563 L 194.805,2.08847 L 194.836,1.51435
 L 194.984,0.959032 L 195.245,0.446786 L 195.607,-0 L 196.054,-0.3618 L 196.566,-0.622803 L 197.121,-0.771599
 L 197.696,-0.801688 L 198.263,-0.711752 L 198.8,-0.505724 L 199.282,-0.192608 L 199.475,-0 L 210.239,-0
 L 210.432,-0.192608 L 210.914,-0.505724 L 211.451,-0.711752 L 212.019,-0.801688 L 212.593,-0.771599 L 213.148,-0.622803
 L 213.66,-0.3618 L 214.107,-0 L 214.469,0.446786 L 214.73,0.959032 L 214.879,1.51435 L 214.909,2.08847
 L 214.819,2.6563 L 214.613,3.19302 L 214.3,3.67517 L 214.107,3.86778 L 214.107,8 L 391.464,8
 L 391.464,3.86778 L 391.272,3.67517 L 390.959,3.19302 L 390.753,2.6563 L 390.663,2.08847 L 390.693,1.51435
 L 390.841,0.959032 L 391.102,0.446786 L 391.464,-0 L 391.911,-0.3618 L 392.423,-0.622803 L 392.979,-0.771599
 L 393.553,-0.801688 L 394.121,-0.711752 L 394.657,-0.505724 L 395.139,-0.192608 L 395.332,-0 L 406.097,-0
 L 406.289,-0.192608 L 406.771,-0.505724 L 407.308,-0.711752 L 407.876,-0.801688 L 408.45,-0.771599 L 409.005,-0.622803
 L 409.517,-0.3618 L 409.964,-0 L 410.326,0.446786 L 410.587,0.959032 L 410.736,1.51435 L 410.766,2.08847
 L 410.676,2.6563 L 410.47,3.19302 L 410.157,3.67517 L 409.964,3.86778 L 409.964,8 L 587.321,8
 L 587.321,3.86778 L 587.129,3.67517 L 586.816,3.19302 L 586.61,2.6563 L 586.52,2.08847 L 586.55,1.51435
 L 586.699,0.959032 L 586.96,0.446786 L 587.321,-0 L 587.768,-0.3618 L 588.28,-0.622803 L 588.836,-0.771599
 L 589.41,-0.801688 L 589.978,-0.711752 L 590.514,-0.505724 L 590.997,-0.192608 L 591.189,-0 L 601.954,-0
 L 602.146,-0.192608 L 602.628,-0.505724 L 603.165,-0.711752 L 603.733,-0.801688 L 604.307,-0.771599 L 604.862,-0.622803
 L 605.375,-0.3618 L 605.821,-0 L 606.183,0.446786 L 606.444,0.959032 L 606.593,1.51435 L 606.623,2.08847
 L 606.533,2.6563 L 606.327,3.19302 L 606.014,3.67517 L 605.821,3.86778 L 605.821,8 L 783.179,8
 L 783.179,3.86778 L 782.986,3.67517 L 782.673,3.19302 L 782.467,2.6563 L 782.377,2.08847 L 782.407,1.51435
 L 782.556,0.959032 L 782.817,0.446786 L 783.179,-0 L 783.625,-0.3618 L 784.138,-0.622803 L 784.693,-0.771599
 L 785.267,-0.801688 L 785.835,-0.711752 L 786.372,-0.505724 L 786.854,-0.192608 L 787.046,-0 L 797.811,-0
 L 798.003,-0.192608 L 798.486,-0.505724 L 799.022,-0.711752 L 799.59,-0.801688 L 800.164,-0.771599 L 800.72,-0.622803
 L 801.232,-0.3618 L 801.679,-0 L 802.04,0.446786 L 802.301,0.959032 L 802.45,1.51435 L 802.48,2.08847
 L 802.39,2.6563 L 802.184,3.19302 L 801.871,3.67517 L 801.679,3.86778 L 801.679,8 L 979.036,8
 L 979.036,3.86778 L 978.843,3.67517 L 978.53,3.19302 L 978.324,2.6563 L 978.234,2.08847 L 978.264,1.51435
 L 978.413,0.959032 L 978.674,0.446786 L 979.036,-0 L 979.483,-0.3618 L 979.995,-0.622803 L 980.55,-0.771599
 L 981.124,-0.801688 L 981.692,-0.711752 L 982.229,-0.505724 L 982.711,-0.192608 L 982.903,-0 L 993.668,-0
 L 993.861,-0.192608 L 994.343,-0.505724 L 994.879,-0.711752 L 995.447,-0.801688 L 996.021,-0.771599 L 996.577,-0.622803
 L 997.089,-0.3618 L 997.536,-0 L 997.898,0.446786 L 998.159,0.959032 L 998.307,1.51435 L 998.337,2.08847
 L 998.247,2.6563 L 998.041,3.19302 L 997.728,3.67517 L 997.536,3.86778 L 997.536,8 L 1174.89,8
 L 1174.89,3.86778 L 1174.7,3.67517 L 1174.39,3.19302 L 1174.18,2.6563 L 1174.09,2.08847 L 1174.12,1.51435
 L 1174.27,0.959032 L 1174.53,0.446786 L 1174.89,-0 L 1175.34,-0.3618 L 1175.85,-0.622803 L 1176.41,-0.771599
 L 1176.98,-0.801688 L 1177.55,-0.711752 L 1178.09,-0.505724 L 1178.57,-0.192608 L 1178.76,-0 L 1189.53,-0
 L 1189.72,-0.192608 L 1190.2,-0.505724 L 1190.74,-0.711752 L 1191.3,-0.801688 L 1191.88,-0.771599 L 1192.43,-0.622803
 L 1192.95,-0.3618 L 1193.39,-0 L 1193.75,0.446786 L 1194.02,0.959032 L 1194.16,1.51435 L 1194.19,2.08847
 L 1194.1,2.6563 L 1193.9,3.19302 L 1193.59,3.67517 L 1193.39,3.86778 L 1193.39,8 L 1370.75,8
 L 1370.75,3.86778 L 1370.56,3.67517 L 1370.24,3.19302 L 1370.04,2.6563 L 1369.95,2.08847 L 1369.98,1.51435
 L 1370.13,0.959032 L 1370.39,0.446786 L 1370.75,-0 L 1371.2,-0.3618 L 1371.71,-0.622803 L 1372.26,-0.771599
 L 1372.84,-0.801688 L 1373.41,-0.711752 L 1373.94,-0.505724 L 1374.43,-0.192608 L 1374.62,-0 L 1388.75,-0
 L 1388.75,-10.85 L 1353.75,-10.85 L 1353.75,-29.95 L 1388.75,-29.95 L 1388.75,-67.5 L 1374.62,-67.5
 L 1374.43,-67.3074 L 1373.94,-66.9943 L 1373.41,-66.7882 L 1372.84,-66.6983 L 1372.26,-66.7284 L 1371.71,-66.8772
 L 1371.2,-67.1382 L 1370.75,-67.5 L 1370.39,-67.9468 L 1370.13,-68.459 L 1369.98,-69.0143 L 1369.95,-69.5885
 L 1370.04,-70.1563 L 1370.24,-70.693 L 1370.56,-71.1752 L 1370.75,-71.3678 L 1370.75,-75.5 L 1193.39,-75.5
 L 1193.39,-71.3678 L 1193.59,-71.1752 L 1193.9,-70.693 L 1194.1,-70.1563 L 1194.19,-69.5885 L 1194.16,-69.0143
 L 1194.02,-68.459 L 1193.75,-67.9468 L 1193.39,-67.5 L 1192.95,-67.1382 L 1192.43,-66.8772 L 1191.88,-66.7284
 L 1191.3,-66.6983 L 1190.74,-66.7882 L 1190.2,-66.9943 L 1189.72,-67.3074 L 1189.53,-67.5 L 1178.76,-67.5
 L 1178.57,-67.3074 L 1178.09,-66.9943 L 1177.55,-66.7882 L 1176.98,-66.6983 L 1176.41,-66.7284 L 1175.85,-66.8772
 L 1175.34,-67.1382 L 1174.89,-67.5 L 1174.53,-67.9468 L 1174.27,-68.459 L 1174.12,-69.0143 L 1174.09,-69.5885
 L 1174.18,-70.1563 L 1174.39,-70.693 L 1174.7,-71.1752 L 1174.89,-71.3678 L 1174.89,-75.5 L 997.536,-75.5
 L 997.536,-71.3678 L 997.728,-71.1752 L 998.041,-70.693 L 998.247,-70.1563 L 998.337,-69.5885 L 998.307,-69.0143
 L 998.159,-68.459 L 997.898,-67.9468 L 997.536,-67.5 L 997.089,-67.1382 L 996.577,-66.8772 L 996.021,-66.7284
 L 995.447,-66.6983 L 994.879,-66.7882 L 994.343,-66.9943 L 993.861,-67.3074 L 993.668,-67.5 L 982.903,-67.5
 L 982.711,-67.3074 L 982.229,-66.9943 L 981.692,-66.7882 L 981.124,-66.6983 L 980.55,-66.7284 L 979.995,-66.8772
 L 979.483,-67.1382 L 979.036,-67.5 L 978.674,-67.9468 L 978.413,-68.459 L 978.264,-69.0143 L 978.234,-69.5885
 L 978.324,-70.1563 L 978.53,-70.693 L 978.843,-71.1752 L 979.036,-71.3678 L 979.036,-75.5 L 801.679,-75.5
 L 801.679,-71.3678 L 801.871,-71.1752 L 802.184,-70.693 L 802.39,-70.1563 L 802.48,-69.5885 L 802.45,-69.0143
 L 802.301,-68.459 L 802.04,-67.9468 L 801.679,-67.5 L 801.232,-67.1382 L 800.72,-66.8772 L 800.164,-66.7284
 L 799.59,-66.6983 L 799.022,-66.7882 L 798.486,-66.9943 L 798.003,-67.3074 L 797.811,-67.5 L 787.046,-67.5
 L 786.854,-67.3074 L 786.372,-66.9943 L 785.835,-66.7882 L 785.267,-66.6983 L 784.693,-66.7284 L 784.138,-66.8772
 L 783.625,-67.1382 L 783.179,-67.5 L 782.817,-67.9468 L 782.556,-68.459 L 782.407,-69.0143 L 782.377,-69.5885
 L 782.467,-70.1563 L 782.673,-70.693 L 782.986,-71.1752 L 783.179,-71.3678 L 783.179,-75.5 L 605.821,-75.5
 L 605.821,-71.3678 L 606.014,-71.1752 L 606.327,-70.693 L 606.533,-70.1563 L 606.623,-69.5885 L 606.593,-69.0143
 L 606.444,-68.459 L 606.183,-67.9468 L 605.821,-67.5 L 605.375,-67.1382 L 604.862,-66.8772 L 604.307,-66.7284
 L 603.733,-66.6983 L 603.165,-66.7882 L 602.628,-66.9943 L 602.146,-67.3074 L 601.954,-67.5 L 591.189,-67.5
 L 590.997,-67.3074 L 590.514,-66.9943 L 589.978,-66.7882 L 589.41,-66.6983 L 588.836,-66.7284 L 588.28,-66.8772
 L 587.768,-67.1382 L 587.321,-67.5 L 586.96,-67.9468 L 586.699,-68.459 L 586.55,-69.0143 L 586.52,-69.5885
 L 586.61,-70.1563 L 586.816,-70.693 L 587.129,-71.1752 L 587.321,-71.3678 L 587.321,-75.5 L 409.964,-75.5
 L 409.964,-71.3678 L 410.157,-71.1752 L 410.47,-70.693 L 410.676,-70.1563 L 410.766,-69.5885 L 410.736,-69.0143
 L 410.587,-68.459 L 410.326,-67.9468 L 409.964,-67.5 L 409.517,-67.1382 L 409.005,-66.8772 L 408.45,-66.7284
 L 407.876,-66.6983 L 407.308,-66.7882 L 406.771,-66.9943 L 406.289,-67.3074 L 406.097,-67.5 L 395.332,-67.5
 L 395.139,-67.3074 L 394.657,-66.9943 L 394.121,-66.7882 L 393.553,-66.6983 L 392.979,-66.7284 L 392.423,-66.8772
 L 391.911,-67.1382 L 391.464,-67.5 L 391.102,-67.9468 L 390.841,-68.459 L 390.693,-69.0143 L 390.663,-69.5885
 L 390.753,-70.1563 L 390.959,-70.693 L 391.272,-71.1752 L 391.464,-71.3678 L 391.464,-75.5 L 214.107,-75.5
 L 214.107,-71.3678 L 214.3,-71.1752 L 214.613,-70.693 L 214.819,-70.1563 L 214.909,-69.5885 L 214.879,-69.0143
 L 214.73,-68.459 L 214.469,-67.9468 L 214.107,-67.5 L 213.66,-67.1382 L 213.148,-66.8772 L 212.593,-66.7284
 L 212.019,-66.6983 L 211.451,-66.7882 L 210.914,-66.9943 L 210.432,-67.3074 L 210.239,-67.5 L 199.475,-67.5
 L 199.282,-67.3074 L 198.8,-66.9943 L 198.263,-66.7882 L 197.696,-66.6983 L 197.121,-66.7284 L 196.566,-66.8772
 L 196.054,-67.1382 L 195.607,-67.5 L 195.245,-67.9468 L 194.984,-68.459 L 194.836,-69.0143 L 194.805,-69.5885
 L 194.895,-70.1563 L 195.101,-70.693 L 195.415,-71.1752 L 195.607,-71.3678 L 195.607,-75.5 L 18.25,-75.5
 L 18.25,-71.3678 L 18.4426,-71.1752 L 18.7557,-70.693 L 18.9618,-70.1563 L 19.0517,-69.5885 L 19.0216,-69.0143
 L 18.8728,-68.459 L 18.6118,-67.9468 L 18.25,-67.5 L 17.8032,-67.1382 L 17.291,-66.8772 L 16.7357,-66.7284
 L 16.1615,-66.6983 L 15.5937,-66.7882 L 15.057,-66.9943 L 14.5748,-67.3074 L 14.3822,-67.5 L 0.25,-67.5
 L 0.25,-42.49 L 5.25,-42.49 L 5.25,-30.49 L 0.25,-30.49 L 0.25,-0 L 14.3822,-0
 L 14.5748,-0.192608 L 15.057,-0.505724 L 15.5937,-0.711752 L 16.1615,-0.801688 L 16.7357,-0.771599 L 17.291,-0.622803
 L 17.8032,-0.3618 L 18.25,-0 L 18.6118,0.446786 L 18.8728,0.959032 L 19.0216,1.51435 L 19.0517,2.08847
 L 18.9618,2.6563 L 18.7557,3.19302 L 18.4426,3.67517 L 18.25,3.86778 L 18.25,8 L 195.607,8
 z
M 1379.54,-59.1403 L 1379.09,-59.2598 L 1378.67,-59.455 L 1378.3,-59.72 L 1377.97,-60.0466 L 1377.71,-60.425
 L 1377.51,-60.8436 L 1377.39,-61.2898 L 1377.35,-61.75 L 1377.39,-62.2102 L 1377.51,-62.6564 L 1377.71,-63.075
 L 1377.97,-63.4534 L 1378.3,-63.78 L 1378.67,-64.045 L 1379.09,-64.2402 L 1379.54,-64.3597 L 1380,-64.4
 L 1380.46,-64.3597 L 1380.91,-64.2402 L 1381.33,-64.045 L 1381.7,-63.78 L 1382.03,-63.4534 L 1382.29,-63.075
 L 1382.49,-62.6564 L 1382.61,-62.2102 L 1382.65,-61.75 L 1382.61,-61.2898 L 1382.49,-60.8436 L 1382.29,-60.425
 L 1382.03,-60.0466 L 1381.7,-59.72 L 1381.33,-59.455 L 1380.91,-59.2598 L 1380.46,-59.1403 L 1380,-59.1
 z
M 8.53983,-59.1403 L 8.09365,-59.2598 L 7.675,-59.455 L 7.29661,-59.72 L 6.96998,-60.0466 L 6.70503,-60.425
 L 6.50981,-60.8436 L 6.39026,-61.2898 L 6.35,-61.75 L 6.39026,-62.2102 L 6.50981,-62.6564 L 6.70503,-63.075
 L 6.96998,-63.4534 L 7.29661,-63.78 L 7.675,-64.045 L 8.09365,-64.2402 L 8.53983,-64.3597 L 9,-64.4
 L 9.46017,-64.3597 L 9.90635,-64.2402 L 10.325,-64.045 L 10.7034,-63.78 L 11.03,-63.4534 L 11.295,-63.075
 L 11.4902,-62.6564 L 11.6097,-62.2102 L 11.65,-61.75 L 11.6097,-61.2898 L 11.4902,-60.8436 L 11.295,-60.425
 L 11.03,-60.0466 L 10.7034,-59.72 L 10.325,-59.455 L 9.90635,-59.2598 L 9.46017,-59.1403 L 9,-59.1
 z
M 204.397,-59.1403 L 203.951,-59.2598 L 203.532,-59.455 L 203.154,-59.72 L 202.827,-60.0466 L 202.562,-60.425
 L 202.367,-60.8436 L 202.247,-61.2898 L 202.207,-61.75 L 202.247,-62.2102 L 202.367,-62.6564 L 202.562,-63.075
 L 202.827,-63.4534 L 203.154,-63.78 L 203.532,-64.045 L 203.951,-64.2402 L 204.397,-64.3597 L 204.857,-64.4
 L 205.317,-64.3597 L 205.763,-64.2402 L 206.182,-64.045 L 206.561,-63.78 L 206.887,-63.4534 L 207.152,-63.075
 L 207.347,-62.6564 L 207.467,-62.2102 L 207.507,-61.75 L 207.467,-61.2898 L 207.347,-60.8436 L 207.152,-60.425
 L 206.887,-60.0466 L 206.561,-59.72 L 206.182,-59.455 L 205.763,-59.2598 L 205.317,-59.1403 L 204.857,-59.1
 z
M 400.254,-59.1403 L 399.808,-59.2598 L 399.389,-59.455 L 399.011,-59.72 L 398.684,-60.0466 L 398.419,-60.425
 L 398.224,-60.8436 L 398.105,-61.2898 L 398.064,-61.75 L 398.105,-62.2102 L 398.224,-62.6564 L 398.419,-63.075
 L 398.684,-63.4534 L 399.011,-63.78 L 399.389,-64.045 L 399.808,-64.2402 L 400.254,-64.3597 L 400.714,-64.4
 L 401.174,-64.3597 L 401.621,-64.2402 L 402.039,-64.045 L 402.418,-63.78 L 402.744,-63.4534 L 403.009,-63.075
 L 403.204,-62.6564 L 403.324,-62.2102 L 403.364,-61.75 L 403.324,-61.2898 L 403.204,-60.8436 L 403.009,-60.425
 L 402.744,-60.0466 L 402.418,-59.72 L 402.039,-59.455 L 401.621,-59.2598 L 401.174,-59.1403 L 400.714,-59.1
 z
M 596.111,-59.1403 L 595.665,-59.2598 L 595.246,-59.455 L 594.868,-59.72 L 594.541,-60.0466 L 594.276,-60.425
 L 594.081,-60.8436 L 593.962,-61.2898 L 593.921,-61.75 L 593.962,-62.2102 L 594.081,-62.6564 L 594.276,-63.075
 L 594.541,-63.4534 L 594.868,-63.78 L 595.246,-64.045 L 595.665,-64.2402 L 596.111,-64.3597 L 596.571,-64.4
 L 597.032,-64.3597 L 597.478,-64.2402 L 597.896,-64.045 L 598.275,-63.78 L 598.601,-63.4534 L 598.866,-63.075
 L 599.062,-62.6564 L 599.181,-62.2102 L 599.221,-61.75 L 599.181,-61.2898 L 599.062,-60.8436 L 598.866,-60.425
 L 598.601,-60.0466 L 598.275,-59.72 L 597.896,-59.455 L 597.478,-59.2598 L 597.032,-59.1403 L 596.571,-59.1
 z
M 791.968,-59.1403 L 791.522,-59.2598 L 791.104,-59.455 L 790.725,-59.72 L 790.399,-60.0466 L 790.134,-60.425
 L 789.938,-60.8436 L 789.819,-61.2898 L 789.779,-61.75 L 789.819,-62.2102 L 789.938,-62.6564 L 790.134,-63.075
 L 790.399,-63.4534 L 790.725,-63.78 L 791.104,-64.045 L 791.522,-64.2402 L 791.968,-64.3597 L 792.429,-64.4
 L 792.889,-64.3597 L 793.335,-64.2402 L 793.754,-64.045 L 794.132,-63.78 L 794.459,-63.4534 L 794.724,-63.075
 L 794.919,-62.6564 L 795.038,-62.2102 L 795.079,-61.75 L 795.038,-61.2898 L 794.919,-60.8436 L 794.724,-60.425
 L 794.459,-60.0466 L 794.132,-59.72 L 793.754,-59.455 L 793.335,-59.2598 L 792.889,-59.1403 L 792.429,-59.1
 z
M 987.826,-59.1403 L 987.379,-59.2598 L 986.961,-59.455 L 986.582,-59.72 L 986.256,-60.0466 L 985.991,-60.425
 L 985.796,-60.8436 L 985.676,-61.2898 L 985.636,-61.75 L 985.676,-62.2102 L 985.796,-62.6564 L 985.991,-63.075
 L 986.256,-63.4534 L 986.582,-63.78 L 986.961,-64.045 L 987.379,-64.2402 L 987.826,-64.3597 L 988.286,-64.4
 L 988.746,-64.3597 L 989.192,-64.2402 L 989.611,-64.045 L 989.989,-63.78 L 990.316,-63.4534 L 990.581,-63.075
 L 990.776,-62.6564 L 990.895,-62.2102 L 990.936,-61.75 L 990.895,-61.2898 L 990.776,-60.8436 L 990.581,-60.425
 L 990.316,-60.0466 L 989.989,-59.72 L 989.611,-59.455 L 989.192,-59.2598 L 988.746,-59.1403 L 988.286,-59.1
 z
M 1183.68,-59.1403 L 1183.24,-59.2598 L 1182.82,-59.455 L 1182.44,-59.72 L 1182.11,-60.0466 L 1181.85,-60.425
 L 1181.65,-60.8436 L 1181.53,-61.2898 L 1181.49,-61.75 L 1181.53,-62.2102 L 1181.65,-62.6564 L 1181.85,-63.075
 L 1182.11,-63.4534 L 1182.44,-63.78 L 1182.82,-64.045 L 1183.24,-64.2402 L 1183.68,-64.3597 L 1184.14,-64.4
 L 1184.6,-64.3597 L 1185.05,-64.2402 L 1185.47,-64.045 L 1185.85,-63.78 L 1186.17,-63.4534 L 1186.44,-63.075
 L 1186.63,-62.6564 L 1186.75,-62.2102 L 1186.79,-61.75 L 1186.75,-61.2898 L 1186.63,-60.8436 L 1186.44,-60.425
 L 1186.17,-60.0466 L 1185.85,-59.72 L 1185.47,-59.455 L 1185.05,-59.2598 L 1184.6,-59.1403 L 1184.14,-59.1
 z
M 1379.54,-3.14026 L 1379.09,-3.25981 L 1378.67,-3.45503 L 1378.3,-3.71998 L 1377.97,-4.04661 L 1377.71,-4.425
 L 1377.51,-4.84365 L 1377.39,-5.28983 L 1377.35,-5.75 L 1377.39,-6.21017 L 1377.51,-6.65635 L 1377.71,-7.075
 L 1377.97,-7.45339 L 1378.3,-7.78002 L 1378.67,-8.04497 L 1379.09,-8.24019 L 1379.54,-8.35974 L 1380,-8.4
 L 1380.46,-8.35974 L 1380.91,-8.24019 L 1381.33,-8.04497 L 1381.7,-7.78002 L 1382.03,-7.45339 L 1382.29,-7.075
 L 1382.49,-6.65635 L 1382.61,-6.21017 L 1382.65,-5.75 L 1382.61,-5.28983 L 1382.49,-4.84365 L 1382.29,-4.425
 L 1382.03,-4.04661 L 1381.7,-3.71998 L 1381.33,-3.45503 L 1380.91,-3.25981 L 1380.46,-3.14026 L 1380,-3.1
 z
M 1183.68,-3.14026 L 1183.24,-3.25981 L 1182.82,-3.45503 L 1182.44,-3.71998 L 1182.11,-4.04661 L 1181.85,-4.425
 L 1181.65,-4.84365 L 1181.53,-5.28983 L 1181.49,-5.75 L 1181.53,-6.21017 L 1181.65,-6.65635 L 1181.85,-7.075
 L 1182.11,-7.45339 L 1182.44,-7.78002 L 1182.82,-8.04497 L 1183.24,-8.24019 L 1183.68,-8.35974 L 1184.14,-8.4
 L 1184.6,-8.35974 L 1185.05,-8.24019 L 1185.47,-8.04497 L 1185.85,-7.78002 L 1186.17,-7.45339 L 1186.44,-7.075
 L 1186.63,-6.65635 L 1186.75,-6.21017 L 1186.79,-5.75 L 1186.75,-5.28983 L 1186.63,-4.84365 L 1186.44,-4.425
 L 1186.17,-4.04661 L 1185.85,-3.71998 L 1185.47,-3.45503 L 1185.05,-3.25981 L 1184.6,-3.14026 L 1184.14,-3.1
 z
M 987.826,-3.14026 L 987.379,-3.25981 L 986.961,-3.45503 L 986.582,-3.71998 L 986.256,-4.04661 L 985.991,-4.425
 L 985.796,-4.84365 L 985.676,-5.28983 L 985.636,-5.75 L 985.676,-6.21017 L 985.796,-6.65635 L 985.991,-7.075
 L 986.256,-7.45339 L 986.582,-7.78002 L 986.961,-8.04497 L 987.379,-8.24019 L 987.826,-8.35974 L 988.286,-8.4
 L 988.746,-8.35974 L 989.192,-8.24019 L 989.611,-8.04497 L 989.989,-7.78002 L 990.316,-7.45339 L 990.581,-7.075
 L 990.776,-6.65635 L 990.895,-6.21017 L 990.936,-5.75 L 990.895,-5.28983 L 990.776,-4.84365 L 990.581,-4.425
 L 990.316,-4.04661 L 989.989,-3.71998 L 989.611,-3.45503 L 989.192,-3.25981 L 988.746,-3.14026 L 988.286,-3.1
 z
M 791.968,-3.14026 L 791.522,-3.25981 L 791.104,-3.45503 L 790.725,-3.71998 L 790.399,-4.04661 L 790.134,-4.425
 L 789.938,-4.84365 L 789.819,-5.28983 L 789.779,-5.75 L 789.819,-6.21017 L 789.938,-6.65635 L 790.134,-7.075
 L 790.399,-7.45339 L 790.725,-7.78002 L 791.104,-8.04497 L 791.522,-8.24019 L 791.968,-8.35974 L 792.429,-8.4
 L 792.889,-8.35974 L 793.335,-8.24019 L 793.754,-8.04497 L 794.132,-7.78002 L 794.459,-7.45339 L 794.724,-7.075
 L 794.919,-6.65635 L 795.038,-6.21017 L 795.079,-5.75 L 795.038,-5.28983 L 794.919,-4.84365 L 794.724,-4.425
 L 794.459,-4.04661 L 794.132,-3.71998 L 793.754,-3.45503 L 793.335,-3.25981 L 792.889,-3.14026 L 792.429,-3.1
 z
M 596.111,-3.14026 L 595.665,-3.25981 L 595.246,-3.45503 L 594.868,-3.71998 L 594.541,-4.04661 L 594.276,-4.425
 L 594.081,-4.84365 L 593.962,-5.28983 L 593.921,-5.75 L 593.962,-6.21017 L 594.081,-6.65635 L 594.276,-7.075
 L 594.541,-7.45339 L 594.868,-7.78002 L 595.246,-8.04497 L 595.665,-8.24019 L 596.111,-8.35974 L 596.571,-8.4
 L 597.032,-8.35974 L 597.478,-8.24019 L 597.896,-8.04497 L 598.275,-7.78002 L 598.601,-7.45339 L 598.866,-7.075
 L 599.062,-6.65635 L 599.181,-6.21017 L 599.221,-5.75 L 599.181,-5.28983 L 599.062,-4.84365 L 598.866,-4.425
 L 598.601,-4.04661 L 598.275,-3.71998 L 597.896,-3.45503 L 597.478,-3.25981 L 597.032,-3.14026 L 596.571,-3.1
 z
M 400.254,-3.14026 L 399.808,-3.25981 L 399.389,-3.45503 L 399.011,-3.71998 L 398.684,-4.04661 L 398.419,-4.425
 L 398.224,-4.84365 L 398.105,-5.28983 L 398.064,-5.75 L 398.105,-6.21017 L 398.224,-6.65635 L 398.419,-7.075
 L 398.684,-7.45339 L 399.011,-7.78002 L 399.389,-8.04497 L 399.808,-8.24019 L 400.254,-8.35974 L 400.714,-8.4
 L 401.174,-8.35974 L 401.621,-8.24019 L 402.039,-8.04497 L 402.418,-7.78002 L 402.744,-7.45339 L 403.009,-7.075
 L 403.204,-6.65635 L 403.324,-6.21017 L 403.364,-5.75 L 403.324,-5.28983 L 403.204,-4.84365 L 403.009,-4.425
 L 402.744,-4.04661 L 402.418,-3.71998 L 402.039,-3.45503 L 401.621,-3.25981 L 401.174,-3.14026 L 400.714,-3.1
 z
M 204.397,-3.14026 L 203.951,-3.25981 L 203.532,-3.45503 L 203.154,-3.71998 L 202.827,-4.04661 L 202.562,-4.425
 L 202.367,-4.84365 L 202.247,-5.28983 L 202.207,-5.75 L 202.247,-6.21017 L 202.367,-6.65635 L 202.562,-7.075
 L 202.827,-7.45339 L 203.154,-7.78002 L 203.532,-8.04497 L 203.951,-8.24019 L 204.397,-8.35974 L 204.857,-8.4
 L 205.317,-8.35974 L 205.763,-8.24019 L 206.182,-8.04497 L 206.561,-7.78002 L 206.887,-7.45339 L 207.152,-7.075
 L 207.347,-6.65635 L 207.467,-6.21017 L 207.507,-5.75 L 207.467,-5.28983 L 207.347,-4.84365 L 207.152,-4.425
 L 206.887,-4.04661 L 206.561,-3.71998 L 206.182,-3.45503 L 205.763,-3.25981 L 205.317,-3.14026 L 204.857,-3.1
 z
M 8.53983,-3.14026 L 8.09365,-3.25981 L 7.675,-3.45503 L 7.29661,-3.71998 L 6.96998,-4.04661 L 6.70503,-4.425
 L 6.50981,-4.84365 L 6.39026,-5.28983 L 6.35,-5.75 L 6.39026,-6.21017 L 6.50981,-6.65635 L 6.70503,-7.075
 L 6.96998,-7.45339 L 7.29661,-7.78002 L 7.675,-8.04497 L 8.09365,-8.24019 L 8.53983,-8.35974 L 9,-8.4
 L 9.46017,-8.35974 L 9.90635,-8.24019 L 10.325,-8.04497 L 10.7034,-7.78002 L 11.03,-7.45339 L 11.295,-7.075
 L 11.4902,-6.65635 L 11.6097,-6.21017 L 11.65,-5.75 L 11.6097,-5.28983 L 11.4902,-4.84365 L 11.295,-4.425
 L 11.03,-4.04661 L 10.7034,-3.71998 L 10.325,-3.45503 L 9.90635,-3.25981 L 9.46017,-3.14026 L 9,-3.1
 z
M 195.607,98.8678 L 195.415,98.6752 L 195.101,98.193 L 194.895,97.6563 L 194.805,97.0885 L 194.836,96.5143
 L 194.984,95.959 L 195.245,95.4468 L 195.607,95 L 196.054,94.6382 L 196.566,94.3772 L 197.121,94.2284
 L 197.696,94.1983 L 198.263,94.2882 L 198.8,94.4943 L 199.282,94.8074 L 199.475,95 L 210.239,95
 L 210.432,94.8074 L 210.914,94.4943 L 211.451,94.2882 L 212.019,94.1983 L 212.593,94.2284 L 213.148,94.3772
 L 213.66,94.6382 L 214.107,95 L 214.469,95.4468 L 214.73,95.959 L 214.879,96.5143 L 214.909,97.0885
 L 214.819,97.6563 L 214.613,98.193 L 214.3,98.6752 L 214.107,98.8678 L 214.107,100.5 L 391.464,100.5
 L 391.464,98.8678 L 391.272,98.6752 L 390.959,98.193 L 390.753,97.6563 L 390.663,97.0885 L 390.693,96.5143
 L 390.841,95.959 L 391.102,95.4468 L 391.464,95 L 391.911,94.6382 L 392.423,94.3772 L 392.979,94.2284
 L 393.553,94.1983 L 394.121,94.2882 L 394.657,94.4943 L 395.139,94.8074 L 395.332,95 L 406.097,95
 L 406.289,94.8074 L 406.771,94.4943 L 407.308,94.2882 L 407.876,94.1983 L 408.45,94.2284 L 409.005,94.3772
 L 409.517,94.6382 L 409.964,95 L 410.326,95.4468 L 410.587,95.959 L 410.736,96.5143 L 410.766,97.0885
 L 410.676,97.6563 L 410.47,98.193 L 410.157,98.6752 L 409.964,98.8678 L 409.964,100.5 L 587.321,100.5
 L 587.321,98.8678 L 587.129,98.6752 L 586.816,98.193 L 586.61,97.6563 L 586.52,97.0885 L 586.55,96.5143
 L 586.699,95.959 L 586.96,95.4468 L 587.321,95 L 587.768,94.6382 L 588.28,94.3772 L 588.836,94.2284
 L 589.41,94.1983 L 589.978,94.2882 L 590.514,94.4943 L 590.997,94.8074 L 591.189,95 L 601.954,95
 L 602.146,94.8074 L 602.628,94.4943 L 603.165,94.2882 L 603.733,94.1983 L 604.307,94.2284 L 604.862,94.3772
 L 605.375,94.6382 L 605.821,95 L 606.183,95.4468 L 606.444,95.959 L 606.593,96.5143 L 606.623,97.0885
 L 606.533,97.6563 L 606.327,98.193 L 606.014,98.6752 L 605.821,98.8678 L 605.821,100.5 L 783.179,100.5
 L 783.179,98.8678 L 782.986,98.6752 L 782.673,98.193 L 782.467,97.6563 L 782.377,97.0885 L 782.407,96.5143
 L 782.556,95.959 L 782.817,95.4468 L 783.179,95 L 783.625,94.6382 L 784.138,94.3772 L 784.693,94.2284
 L 785.267,94.1983 L 785.835,94.2882 L 786.372,94.4943 L 786.854,94.8074 L 787.046,95 L 797.811,95
 L 798.003,94.8074 L 798.486,94.4943 L 799.022,94.2882 L 799.59,94.1983 L 800.164,94.2284 L 800.72,94.3772
 L 801.232,94.6382 L 801.679,95 L 802.04,95.4468 L 802.301,95.959 L 802.45,96.5143 L 802.48,97.0885
 L 802.39,97.6563 L 802.184,98.193 L 801.871,98.6752 L 801.679,98.8678 L 801.679,100.5 L 979.036,100.5
 L 979.036,98.8678 L 978.843,98.6752 L 978.53,98.193 L 978.324,97.6563 L 978.234,97.0885 L 978.264,96.5143
 L 978.413,95.959 L 978.674,95.4468 L 979.036,95 L 979.483,94.6382 L 979.995,94.3772 L 980.55,94.2284
 L 981.124,94.1983 L 981.692,94.2882 L 982.229,94.4943 L 982.711,94.8074 L 982.903,95 L 993.668,95
 L 993.861,94.8074 L 994.343,94.4943 L 994.879,94.2882 L 995.447,94.1983 L 996.021,94.2284 L 996.577,94.3772
 L 997.089,94.6382 L 997.536,95 L 997.898,95.4468 L 998.159,95.959 L 998.307,96.5143 L 998.337,97.0885
 L 998.247,97.6563 L 998.041,98.193 L 997.728,98.6752 L 997.536,98.8678 L 997.536,100.5 L 1174.89,100.5
 L 1174.89,98.8678 L 1174.7,98.6752 L 1174.39,98.193 L 1174.18,97.6563 L 1174.09,97.0885 L 1174.12,96.5143
 L 1174.27,95.959 L 1174.53,95.4468 L 1174.89,95 L 1175.34,94.6382 L 1175.85,94.3772 L 1176.41,94.2284
 L 1176.98,94.1983 L 1177.55,94.2882 L 1178.09,94.4943 L 1178.57,94.8074 L 1178.76,95 L 1189.53,95
 L 1189.72,94.8074 L 1190.2,94.4943 L 1190.74,94.2882 L 1191.3,94.1983 L 1191.88,94.2284 L 1192.43,94.3772
 L 1192.95,94.6382 L 1193.39,95 L 1193.75,95.4468 L 1194.02,95.959 L 1194.16,96.5143 L 1194.19,97.0885
 L 1194.1,97.6563 L 1193.9,98.193 L 1193.59,98.6752 L 1193.39,98.8678 L 1193.39,100.5 L 1370.75,100.5
 L 1370.75,98.8678 L 1370.56,98.6752 L 1370.24,98.193 L 1370.04,97.6563 L 1369.95,97.0885 L 1369.98,96.5143
 L 1370.13,95.959 L 1370.39,95.4468 L 1370.75,95 L 1371.2,94.6382 L 1371.71,94.3772 L 1372.26,94.2284
 L 1372.84,94.1983 L 1373.41,94.2882 L 1373.94,94.4943 L 1374.43,94.8074 L 1374.62,95 L 1388.75,95
 L 1388.75,27.5 L 1374.62,27.5 L 1374.43,27.6926 L 1373.94,28.0057 L 1373.41,28.2118 L 1372.84,28.3017
 L 1372.26,28.2716 L 1371.71,28.1228 L 1371.2,27.8618 L 1370.75,27.5 L 1370.39,27.0532 L 1370.13,26.541
 L 1369.98,25.9857 L 1369.95,25.4115 L 1370.04,24.8437 L 1370.24,24.307 L 1370.56,23.8248 L 1370.75,23.6322
 L 1370.75,22 L 1193.39,22 L 1193.39,23.6322 L 1193.59,23.8248 L 1193.9,24.307 L 1194.1,24.8437
 L 1194.19,25.4115 L 1194.16,25.9857 L 1194.02,26.541 L 1193.75,27.0532 L 1193.39,27.5 L 1192.95,27.8618
 L 1192.43,28.1228 L 1191.88,28.2716 L 1191.3,28.3017 L 1190.74,28.2118 L 1190.2,28.0057 L 1189.72,27.6926
 L 1189.53,27.5 L 1178.76,27.5 L 1178.57,27.6926 L 1178.09,28.0057 L 1177.55,28.2118 L 1176.98,28.3017
 L 1176.41,28.2716 L 1175.85,28.1228 L 1175.34,27.8618 L 1174.89,27.5 L 1174.53,27.0532 L 1174.27,26.541
 L 1174.12,25.9857 L 1174.09,25.4115 L 1174.18,24.8437 L 1174.39,24.307 L 1174.7,23.8248 L 1174.89,23.6322
 L 1174.89,22 L 997.536,22 L 997.536,23.6322 L 997.728,23.8248 L 998.041,24.307 L 998.247,24.8437
 L 998.337,25.4115 L 998.307,25.9857 L 998.159,26.541 L 997.898,27.0532 L 997.536,27.5 L 997.089,27.8618
 L 996.577,28.1228 L 996.021,28.2716 L 995.447,28.3017 L 994.879,28.2118 L 994.343,28.0057 L 993.861,27.6926
 L 993.668,27.5 L 982.903,27.5 L 982.711,27.6926 L 982.229,28.0057 L 981.692,28.2118 L 981.124,28.3017
 L 980.55,28.2716 L 979.995,28.1228 L 979.483,27.8618 L 979.036,27.5 L 978.674,27.0532 L 978.413,26.541
 L 978.264,25.9857 L 978.234,25.4115 L 978.324,24.8437 L 978.53,24.307 L 978.843,23.8248 L 979.036,23.6322
 L 979.036,22 L 801.679,22 L 801.679,23.6322 L 801.871,23.8248 L 802.184,24.307 L 802.39,24.8437
 L 802.48,25.4115 L 802.45,25.9857 L 802.301,26.541 L 802.04,27.0532 L 801.679,27.5 L 801.232,27.8618
 L 800.72,28.1228 L 800.164,28.2716 L 799.59,28.3017 L 799.022,28.2118 L 798.486,28.0057 L 798.003,27.6926
 L 797.811,27.5 L 787.046,27.5 L 786.854,27.6926 L 786.372,28.0057 L 785.835,28.2118 L 785.267,28.3017
 L 784.693,28.2716 L 784.138,28.1228 L 783.625,27.8618 L 783.179,27.5 L 782.817,27.0532 L 782.556,26.541
 L 782.407,25.9857 L 782.377,25.4115 L 782.467,24.8437 L 782.673,24.307 L 782.986,23.8248 L 783.179,23.6322
 L 783.179,22 L 605.821,22 L 605.821,23.6322 L 606.014,23.8248 L 606.327,24.307 L 606.533,24.8437
 L 606.623,25.4115 L 606.593,25.9857 L 606.444,26.541 L 606.183,27.0532 L 605.821,27.5 L 605.375,27.8618
 L 604.862,28.1228 L 604.307,28.2716 L 603.733,28.3017 L 603.165,28.2118 L 602.628,28.0057 L 602.146,27.6926
 L 601.954,27.5 L 591.189,27.5 L 590.997,27.6926 L 590.514,28.0057 L 589.978,28.2118 L 589.41,28.3017
 L 588.836,28.2716 L 588.28,28.1228 L 587.768,27.8618 L 587.321,27.5 L 586.96,27.0532 L 586.699,26.541
 L 586.55,25.9857 L 586.52,25.4115 L 586.61,24.8437 L 586.816,24.307 L 587.129,23.8248 L 587.321,23.6322
 L 587.321,22 L 409.964,22 L 409.964,23.6322 L 410.157,23.8248 L 410.47,24.307 L 410.676,24.8437
 L 410.766,25.4115 L 410.736,25.9857 L 410.587,26.541 L 410.326,27.0532 L 409.964,27.5 L 409.517,27.8618
 L 409.005,28.1228 L 408.45,28.2716 L 407.876,28.3017 L 407.308,28.2118 L 406.771,28.0057 L 406.289,27.6926
 L 406.097,27.5 L 395.332,27.5 L 395.139,27.6926 L 394.657,28.0057 L 394.121,28.2118 L 393.553,28.3017
 L 392.979,28.2716 L 392.423,28.1228 L 391.911,27.8618 L 391.464,27.5 L 391.102,27.0532 L 390.841,26.541
 L 390.693,25.9857 L 390.663,25.4115 L 390.753,24.8437 L 390.959,24.307 L 391.272,23.8248 L 391.464,23.6322
 L 391.464,22 L 214.107,22 L 214.107,23.6322 L 214.3,23.8248 L 214.613,24.307 L 214.819,24.8437
 L 214.909,25.4115 L 214.879,25.9857 L 214.73,26.541 L 214.469,27.0532 L 214.107,27.5 L 213.66,27.8618
 L 213.148,28.1228 L 212.593,28.2716 L 212.019,28.3017 L 211.451,28.2118 L 210.914,28.0057 L 210.432,27.6926
 L 210.239,27.5 L 199.475,27.5 L 199.282,27.6926 L 198.8,28.0057 L 198.263,28.2118 L 197.696,28.3017
 L 197.121,28.2716 L 196.566,28.1228 L 196.054,27.8618 L 195.607,27.5 L 195.245,27.0532 L 194.984,26.541
 L 194.836,25.9857 L 194.805,25.4115 L 194.895,24.8437 L 195.101,24.307 L 195.415,23.8248 L 195.607,23.6322
 L 195.607,22 L 18.25,22 L 18.25,23.6322 L 18.4426,23.8248 L 18.7557,24.307 L 18.9618,24.8437
 L 19.0517,25.4115 L 19.0216,25.9857 L 18.8728,26.541 L 18.6118,27.0532 L 18.25,27.5 L 17.8032,27.8618
 L 17.291,28.1228 L 16.7357,28.2716 L 16.1615,28.3017 L 15.5937,28.2118 L 15.057,28.0057 L 14.5748,27.6926
 L 14.3822,27.5 L 0.25,27.5 L 0.25,95 L 14.3822,95 L 14.5748,94.8074 L 15.057,94.4943
 L 15.5937,94.2882 L 16.1615,94.1983 L 16.7357,94.2284 L 17.291,94.3772 L 17.8032,94.6382 L 18.25,95
 L 18.6118,95.4468 L 18.8728,95.959 L 19.0216,96.5143 L 19.0517,97.0885 L 18.9618,97.6563 L 18.7557,98.193
 L 18.4426,98.6752 L 18.25,98.8678 L 18.25,100.5 L 195.607,100.5 z
M 8.53983,35.8597 L 8.09365,35.7402 L 7.675,35.545 L 7.29661,35.28 L 6.96998,34.9534 L 6.70503,34.575
 L 6.50981,34.1564 L 6.39026,33.7102 L 6.35,33.25 L 6.39026,32.7898 L 6.50981,32.3436 L 6.70503,31.925
 L 6.96998,31.5466 L 7.29661,31.22 L 7.675,30.955 L 8.09365,30.7598 L 8.53983,30.6403 L 9,30.6
 L 9.46017,30.6403 L 9.90635,30.7598 L 10.325,30.955 L 10.7034,31.22 L 11.03,31.5466 L 11.295,31.925
 L 11.4902,32.3436 L 11.6097,32.7898 L 11.65,33.25 L 11.6097,33.7102 L 11.4902,34.1564 L 11.295,34.575
 L 11.03,34.9534 L 10.7034,35.28 L 10.325,35.545 L 9.90635,35.7402 L 9.46017,35.8597 L 9,35.9
 z
M 204.397,35.8597 L 203.951,35.7402 L 203.532,35.545 L 203.154,35.28 L 202.827,34.9534 L 202.562,34.575
 L 202.367,34.1564 L 202.247,33.7102 L 202.207,33.25 L 202.247,32.7898 L 202.367,32.3436 L 202.562,31.925
 L 202.827,31.5466 L 203.154,31.22 L 203.532,30.955 L 203.951,30.7598 L 204.397,30.6403 L 204.857,30.6
 L 205.317,30.6403 L 205.763,30.7598 L 206.182,30.955 L 206.561,31.22 L 206.887,31.5466 L 207.152,31.925
 L 207.347,32.3436 L 207.467,32.7898 L 207.507,33.25 L 207.467,33.7102 L 207.347,34.1564 L 207.152,34.575
 L 206.887,34.9534 L 206.561,35.28 L 206.182,35.545 L 205.763,35.7402 L 205.317,35.8597 L 204.857,35.9
 z
M 400.254,35.8597 L 399.808,35.7402 L 399.389,35.545 L 399.011,35.28 L 398.684,34.9534 L 398.419,34.575
 L 398.224,34.1564 L 398.105,33.7102 L 398.064,33.25 L 398.105,32.7898 L 398.224,32.3436 L 398.419,31.925
 L 398.684,31.5466 L 399.011,31.22 L 399.389,30.955 L 399.808,30.7598 L 400.254,30.6403 L 400.714,30.6
 L 401.174,30.6403 L 401.621,30.7598 L 402.039,30.955 L 402.418,31.22 L 402.744,31.5466 L 403.009,31.925
 L 403.204,32.3436 L 403.324,32.7898 L 403.364,33.25 L 403.324,33.7102 L 403.204,34.1564 L 403.009,34.575
 L 402.744,34.9534 L 402.418,35.28 L 402.039,35.545 L 401.621,35.7402 L 401.174,35.8597 L 400.714,35.9
 z
M 596.111,35.8597 L 595.665,35.7402 L 595.246,35.545 L 594.868,35.28 L 594.541,34.9534 L 594.276,34.575
 L 594.081,34.1564 L 593.962,33.7102 L 593.921,33.25 L 593.962,32.7898 L 594.081,32.3436 L 594.276,31.925
 L 594.541,31.5466 L 594.868,31.22 L 595.246,30.955 L 595.665,30.7598 L 596.111,30.6403 L 596.571,30.6
 L 597.032,30.6403 L 597.478,30.7598 L 597.896,30.955 L 598.275,31.22 L 598.601,31.5466 L 598.866,31.925
 L 599.062,32.3436 L 599.181,32.7898 L 599.221,33.25 L 599.181,33.7102 L 599.062,34.1564 L 598.866,34.575
 L 598.601,34.9534 L 598.275,35.28 L 597.896,35.545 L 597.478,35.7402 L 597.032,35.8597 L 596.571,35.9
 z
M 791.968,35.8597 L 791.522,35.7402 L 791.104,35.545 L 790.725,35.28 L 790.399,34.9534 L 790.134,34.575
 L 789.938,34.1564 L 789.819,33.7102 L 789.779,33.25 L 789.819,32.7898 L 789.938,32.3436 L 790.134,31.925
 L 790.399,31.5466 L 790.725,31.22 L 791.104,30.955 L 791.522,30.7598 L 791.968,30.6403 L 792.429,30.6
 L 792.889,30.6403 L 793.335,30.7598 L 793.754,30.955 L 794.132,31.22 L 794.459,31.5466 L 794.724,31.925
 L 794.919,32.3436 L 795.038,32.7898 L 795.079,33.25 L 795.038,33.7102 L 794.919,34.1564 L 794.724,34.575
 L 794.459,34.9534 L 794.132,35.28 L 793.754,35.545 L 793.335,35.7402 L 792.889,35.8597 L 792.429,35.9
 z
M 1183.68,35.8597 L 1183.24,35.7402 L 1182.82,35.545 L 1182.44,35.28 L 1182.11,34.9534 L 1181.85,34.575
 L 1181.65,34.1564 L 1181.53,33.7102 L 1181.49,33.25 L 1181.53,32.7898 L 1181.65,32.3436 L 1181.85,31.925
 L 1182.11,31.5466 L 1182.44,31.22 L 1182.82,30.955 L 1183.24,30.7598 L 1183.68,30.6403 L 1184.14,30.6
 L 1184.6,30.6403 L 1185.05,30.7598 L 1185.47,30.955 L 1185.85,31.22 L 1186.17,31.5466 L 1186.44,31.925
 L 1186.63,32.3436 L 1186.75,32.7898 L 1186.79,33.25 L 1186.75,33.7102 L 1186.63,34.1564 L 1186.44,34.575
 L 1186.17,34.9534 L 1185.85,35.28 L 1185.47,35.545 L 1185.05,35.7402 L 1184.6,35.8597 L 1184.14,35.9
 z
M 1379.54,35.8597 L 1379.09,35.7402 L 1378.67,35.545 L 1378.3,35.28 L 1377.97,34.9534 L 1377.71,34.575
 L 1377.51,34.1564 L 1377.39,33.7102 L 1377.35,33.25 L 1377.39,32.7898 L 1377.51,32.3436 L 1377.71,31.925
 L 1377.97,31.5466 L 1378.3,31.22 L 1378.67,30.955 L 1379.09,30.7598 L 1379.54,30.6403 L 1380,30.6
 L 1380.46,30.6403 L 1380.91,30.7598 L 1381.33,30.955 L 1381.7,31.22 L 1382.03,31.5466 L 1382.29,31.925
 L 1382.49,32.3436 L 1382.61,32.7898 L 1382.65,33.25 L 1382.61,33.7102 L 1382.49,34.1564 L 1382.29,34.575
 L 1382.03,34.9534 L 1381.7,35.28 L 1381.33,35.545 L 1380.91,35.7402 L 1380.46,35.8597 L 1380,35.9
 z
M 987.826,35.8597 L 987.379,35.7402 L 986.961,35.545 L 986.582,35.28 L 986.256,34.9534 L 985.991,34.575
 L 985.796,34.1564 L 985.676,33.7102 L 985.636,33.25 L 985.676,32.7898 L 985.796,32.3436 L 985.991,31.925
 L 986.256,31.5466 L 986.582,31.22 L 986.961,30.955 L 987.379,30.7598 L 987.826,30.6403 L 988.286,30.6
 L 988.746,30.6403 L 989.192,30.7598 L 989.611,30.955 L 989.989,31.22 L 990.316,31.5466 L 990.581,31.925
 L 990.776,32.3436 L 990.895,32.7898 L 990.936,33.25 L 990.895,33.7102 L 990.776,34.1564 L 990.581,34.575
 L 990.316,34.9534 L 989.989,35.28 L 989.611,35.545 L 989.192,35.7402 L 988.746,35.8597 L 988.286,35.9
 z
M 1379.54,91.8597 L 1379.09,91.7402 L 1378.67,91.545 L 1378.3,91.28 L 1377.97,90.9534 L 1377.71,90.575
 L 1377.51,90.1564 L 1377.39,89.7102 L 1377.35,89.25 L 1377.39,88.7898 L 1377.51,88.3436 L 1377.71,87.925
 L 1377.97,87.5466 L 1378.3,87.22 L 1378.67,86.955 L 1379.09,86.7598 L 1379.54,86.6403 L 1380,86.6
 L 1380.46,86.6403 L 1380.91,86.7598 L 1381.33,86.955 L 1381.7,87.22 L 1382.03,87.5466 L 1382.29,87.925
 L 1382.49,88.3436 L 1382.61,88.7898 L 1382.65,89.25 L 1382.61,89.7102 L 1382.49,90.1564 L 1382.29,90.575
 L 1382.03,90.9534 L 1381.7,91.28 L 1381.33,91.545 L 1380.91,91.7402 L 1380.46,91.8597 L 1380,91.9
 z
M 204.397,91.8597 L 203.951,91.7402 L 203.532,91.545 L 203.154,91.28 L 202.827,90.9534 L 202.562,90.575
 L 202.367,90.1564 L 202.247,89.7102 L 202.207,89.25 L 202.247,88.7898 L 202.367,88.3436 L 202.562,87.925
 L 202.827,87.5466 L 203.154,87.22 L 203.532,86.955 L 203.951,86.7598 L 204.397,86.6403 L 204.857,86.6
 L 205.317,86.6403 L 205.763,86.7598 L 206.182,86.955 L 206.561,87.22 L 206.887,87.5466 L 207.152,87.925
 L 207.347,88.3436 L 207.467,88.7898 L 207.507,89.25 L 207.467,89.7102 L 207.347,90.1564 L 207.152,90.575
 L 206.887,90.9534 L 206.561,91.28 L 206.182,91.545 L 205.763,91.7402 L 205.317,91.8597 L 204.857,91.9
 z
M 400.254,91.8597 L 399.808,91.7402 L 399.389,91.545 L 399.011,91.28 L 398.684,90.9534 L 398.419,90.575
 L 398.224,90.1564 L 398.105,89.7102 L 398.064,89.25 L 398.105,88.7898 L 398.224,88.3436 L 398.419,87.925
 L 398.684,87.5466 L 399.011,87.22 L 399.389,86.955 L 399.808,86.7598 L 400.254,86.6403 L 400.714,86.6
 L 401.174,86.6403 L 401.621,86.7598 L 402.039,86.955 L 402.418,87.22 L 402.744,87.5466 L 403.009,87.925
 L 403.204,88.3436 L 403.324,88.7898 L 403.364,89.25 L 403.324,89.7102 L 403.204,90.1564 L 403.009,90.575
 L 402.744,90.9534 L 402.418,91.28 L 402.039,91.545 L 401.621,91.7402 L 401.174,91.8597 L 400.714,91.9
 z
M 596.111,91.8597 L 595.665,91.7402 L 595.246,91.545 L 594.868,91.28 L 594.541,90.9534 L 594.276,90.575
 L 594.081,90.1564 L 593.962,89.7102 L 593.921,89.25 L 593.962,88.7898 L 594.081,88.3436 L 594.276,87.925
 L 594.541,87.5466 L 594.868,87.22 L 595.246,86.955 L 595.665,86.7598 L 596.111,86.6403 L 596.571,86.6
 L 597.032,86.6403 L 597.478,86.7598 L 597.896,86.955 L 598.275,87.22 L 598.601,87.5466 L 598.866,87.925
 L 599.062,88.3436 L 599.181,88.7898 L 599.221,89.25 L 599.181,89.7102 L 599.062,90.1564 L 598.866,90.575
 L 598.601,90.9534 L 598.275,91.28 L 597.896,91.545 L 597.478,91.7402 L 597.032,91.8597 L 596.571,91.9
 z
M 791.968,91.8597 L 791.522,91.7402 L 791.104,91.545 L 790.725,91.28 L 790.399,90.9534 L 790.134,90.575
 L 789.938,90.1564 L 789.819,89.7102 L 789.779,89.25 L 789.819,88.7898 L 789.938,88.3436 L 790.134,87.925
 L 790.399,87.5466 L 790.725,87.22 L 791.104,86.955 L 791.522,86.7598 L 791.968,86.6403 L 792.429,86.6
 L 792.889,86.6403 L 793.335,86.7598 L 793.754,86.955 L 794.132,87.22 L 794.459,87.5466 L 794.724,87.925
 L 794.919,88.3436 L 795.038,88.7898 L 795.079,89.25 L 795.038,89.7102 L 794.919,90.1564 L 794.724,90.575
 L 794.459,90.9534 L 794.132,91.28 L 793.754,91.545 L 793.335,91.7402 L 792.889,91.8597 L 792.429,91.9
 z
M 987.826,91.8597 L 987.379,91.7402 L 986.961,91.545 L 986.582,91.28 L 986.256,90.9534 L 985.991,90.575
 L 985.796,90.1564 L 985.676,89.7102 L 985.636,89.25 L 985.676,88.7898 L 985.796,88.3436 L 985.991,87.925
 L 986.256,87.5466 L 986.582,87.22 L 986.961,86.955 L 987.379,86.7598 L 987.826,86.6403 L 988.286,86.6
 L 988.746,86.6403 L 989.192,86.7598 L 989.611,86.955 L 989.989,87.22 L 990.316,87.5466 L 990.581,87.925
 L 990.776,88.3436 L 990.895,88.7898 L 990.936,89.25 L 990.895,89.7102 L 990.776,90.1564 L 990.581,90.575
 L 990.316,90.9534 L 989.989,91.28 L 989.611,91.545 L 989.192,91.7402 L 988.746,91.8597 L 988.286,91.9
 z
M 1183.68,91.8597 L 1183.24,91.7402 L 1182.82,91.545 L 1182.44,91.28 L 1182.11,90.9534 L 1181.85,90.575
 L 1181.65,90.1564 L 1181.53,89.7102 L 1181.49,89.25 L 1181.53,88.7898 L 1181.65,88.3436 L 1181.85,87.925
 L 1182.11,87.5466 L 1182.44,87.22 L 1182.82,86.955 L 1183.24,86.7598 L 1183.68,86.6403 L 1184.14,86.6
 L 1184.6,86.6403 L 1185.05,86.7598 L 1185.47,86.955 L 1185.85,87.22 L 1186.17,87.5466 L 1186.44,87.925
 L 1186.63,88.3436 L 1186.75,88.7898 L 1186.79,89.25 L 1186.75,89.7102 L 1186.63,90.1564 L 1186.44,90.575
 L 1186.17,90.9534 L 1185.85,91.28 L 1185.47,91.545 L 1185.05,91.7402 L 1184.6,91.8597 L 1184.14,91.9
 z
M 8.53983,91.8597 L 8.09365,91.7402 L 7.675,91.545 L 7.29661,91.28 L 6.96998,90.9534 L 6.70503,90.575
 L 6.50981,90.1564 L 6.39026,89.7102 L 6.35,89.25 L 6.39026,88.7898 L 6.50981,88.3436 L 6.70503,87.925
 L 6.96998,87.5466 L 7.29661,87.22 L 7.675,86.955 L 8.09365,86.7598 L 8.53983,86.6403 L 9,86.6
 L 9.46017,86.6403 L 9.90635,86.7598 L 10.325,86.955 L 10.7034,87.22 L 11.03,87.5466 L 11.295,87.925
 L 11.4902,88.3436 L 11.6097,88.7898 L 11.65,89.25 L 11.6097,89.7102 L 11.4902,90.1564 L 11.295,90.575
 L 11.03,90.9534 L 10.7034,91.28 L 10.325,91.545 L 9.90635,91.7402 L 9.46017,91.8597 L 9,91.9
 z
" stroke="black" fill="lightgray" stroke-width="0.5"/>
</svg>
